<?xml version="1.0" encoding="utf-8"?>
<!-- Generator: Adobe Illustrator 22.0.0, SVG Export Plug-In . SVG Version: 6.00 Build 0)  -->
<svg version="1.1" id="Layer_1" xmlns:serif="http://www.serif.com/"
	 xmlns="http://www.w3.org/2000/svg" xmlns:xlink="http://www.w3.org/1999/xlink" x="0px" y="0px" viewBox="0 0 1738.5 659.1"
	 style="enable-background:new 0 0 1738.5 659.1;" xml:space="preserve">
<style type="text/css">
	.st0{fill:#14B5EA;}
	.st1{fill:#D3DBDE;}
	.st2{fill:#FFFFFF;}
	.st3{fill:#8A98AC;}
</style>
<g>
	<g>
		<path class="st0" d="M1141.5,265.5c-8.4,3.7-15.8,8.6-21.9,14.8c-6.2,6.2-11,13.4-14.5,21.6c-3.5,8.3-5.3,17.1-5.3,26.6
			c0,9.9,1.8,19,5.4,27.3c3.6,8.3,8.5,15.6,14.8,21.8c6.3,6.2,13.6,11,21.9,14.4c8.4,3.4,17.3,5.1,26.8,5.1c9.7,0,18.7-1.8,27-5.4
			c8.3-3.6,15.6-8.5,21.8-14.8c6.2-6.3,11-13.5,14.7-21.8c3.6-8.3,5.4-17.1,5.4-26.6c0-9.7-1.8-18.7-5.6-27s-8.7-15.7-14.9-21.9
			c-6.3-6.3-13.6-11.2-21.9-14.8c-8.4-3.6-17.2-5.4-26.5-5.4C1159,259.8,1149.9,261.8,1141.5,265.5 M1191.2,306.4
			c5.9,6.1,9,13.5,9.4,22.2c0,4.4-0.9,8.5-2.6,12.4c-1.7,3.9-4,7.3-6.8,10.2c-2.8,2.9-6.2,5.3-10.1,7c-3.9,1.7-8,2.6-12.4,2.6
			c-4.4,0-8.5-0.9-12.2-2.6c-3.8-1.7-7.2-4-10.1-7c-2.9-2.9-5.3-6.3-7-10.2c-1.7-3.9-2.6-8-2.6-12.4c0-4.6,0.9-8.8,2.6-12.7
			c1.7-3.9,4-7.3,7-10.1c2.9-2.9,6.3-5.1,10.1-6.7c3.8-1.6,7.9-2.4,12.2-2.4C1177.8,297.1,1185.3,300.3,1191.2,306.4 M1253.1,220.7
			c-3.9,3.4-5.8,7.7-5.8,12.8v93.6c0.2,10.6,2.2,20.3,6.1,28.9c3.9,8.6,9.2,16,15.8,22.2c6.6,6.2,14.3,10.9,23.1,14.2
			c8.7,3.3,18,5,27.9,5c9.1,0,17.6-1.7,25.6-5.1c8-3.4,15.3-8.4,21.9-14.8c1.7-1.7,2.9-3.7,3.7-6c0.8-2.3,1.1-4.6,1-7
			c-0.1-2.4-0.6-4.6-1.6-6.8c-0.9-2.2-2.4-4.1-4.3-5.8c-4.2-3.8-8.7-5.6-13.5-5.6c-4.8,0.1-9.3,1.9-13.2,5.3c-2.7,2.7-5.7,4.6-9.3,6
			c-3.5,1.3-7.7,2-12.7,2c-4.6,0-8.8-0.9-12.7-2.6c-3.9-1.7-7.3-4.1-10.1-7.1s-5.1-6.5-6.7-10.4c-1.6-3.9-2.4-8-2.4-12.4v-31.3h49
			c4.7,0,9-1.9,12.8-5.8c3.8-3.9,5.7-8.3,5.7-13.2c0-5.1-1.7-9.6-5.1-13.4c-3.4-3.8-7.9-5.7-13.4-5.7h-49v-22.8
			c-0.4-5.5-2.4-10.1-6-13.8c-3.6-3.7-8.1-5.6-13.4-5.6C1261.5,215.5,1257,217.3,1253.1,220.7 M1383.2,220.7
			c-3.9,3.4-5.8,7.7-5.8,12.8v93.6c0.2,10.6,2.2,20.3,6.1,28.9c3.9,8.6,9.2,16,15.8,22.2c6.6,6.2,14.3,10.9,23.1,14.2
			c8.7,3.3,18,5,27.9,5c9.1,0,17.6-1.7,25.6-5.1c8-3.4,15.3-8.4,21.9-14.8c1.7-1.7,2.9-3.7,3.7-6c0.8-2.3,1.1-4.6,1-7
			c-0.1-2.4-0.6-4.6-1.6-6.8c-1-2.2-2.4-4.1-4.3-5.8c-4.2-3.8-8.7-5.6-13.5-5.6c-4.8,0.1-9.3,1.9-13.2,5.3c-2.7,2.7-5.7,4.6-9.3,6
			c-3.5,1.3-7.7,2-12.7,2c-4.6,0-8.8-0.9-12.7-2.6c-3.9-1.7-7.3-4.1-10.1-7.1c-2.8-3-5.1-6.5-6.7-10.4c-1.6-3.9-2.4-8-2.4-12.4
			v-31.3h49c4.7,0,9-1.9,12.8-5.8c3.8-3.9,5.7-8.3,5.7-13.2c0-5.1-1.7-9.6-5.1-13.4c-3.4-3.8-7.9-5.7-13.4-5.7h-49v-22.8
			c-0.4-5.5-2.4-10.1-6-13.8c-3.6-3.7-8.1-5.6-13.4-5.6C1391.6,215.5,1387.1,217.3,1383.2,220.7 M1548.1,265.4
			c-8.4,3.8-15.7,8.9-21.9,15.2c-6.3,6.4-11.2,13.7-14.9,22.1c-3.7,8.4-5.6,17-5.6,25.9c0,9.1,1.8,17.9,5.6,26.5
			c3.7,8.5,8.7,16,15.1,22.4c6.4,6.4,13.7,11.4,22.1,15.1c8.4,3.7,17.1,5.4,26.2,5c7-0.2,13.7-1.1,19.9-2.7c6.3-1.6,12-4.5,17.1-8.7
			c2.8-3,4.5-6.4,5-10c0.5-3.6,0-7-1.4-10.1c-1.4-3.1-3.6-5.7-6.6-7.8c-2.9-2.1-6.4-3.2-10.4-3.4c-2.1,0-3.9,0.3-5.5,0.9
			c-1.6,0.6-3.2,1.2-4.8,2c-1.6,0.8-3.5,1.4-5.6,2c-2.1,0.6-4.7,0.9-7.7,0.9c-11,0-19.6-5.4-25.9-16.2h75.7c5.5,0.2,10.1-1.1,13.8-4
			c3.7-2.8,5.6-6.7,5.6-11.7c0-9.1-1.9-17.8-5.7-26c-3.8-8.3-8.9-15.6-15.2-21.9c-6.4-6.4-13.7-11.4-22.1-15.2
			c-8.3-3.8-17.1-5.7-26.2-5.7C1565.3,259.7,1556.5,261.6,1548.1,265.4 M1548.7,312.6c3.2-5.9,7-10,11.2-12.4
			c4.3-2.4,9.2-3.6,14.7-3.6c5.3,0,10.2,1.2,14.5,3.6c4.4,2.4,8.2,6.5,11.4,12.4H1548.7z M1682.6,392.9c3.3-3.2,5.2-7.3,5.6-12.2
			v-51.8c0-4.6,0.9-8.8,2.6-12.7c1.7-3.9,4-7.3,6.8-10.1c2.8-2.8,6.2-5.1,10-6.7c3.8-1.6,7.9-2.4,12.2-2.4c5.3-0.2,9.8-2,13.4-5.5
			c3.6-3.5,5.4-7.8,5.4-13c-0.4-5.1-2.3-9.5-5.8-13.1c-3.5-3.6-7.9-5.4-13.2-5.4c-9.3,0.4-18.1,2.3-26.3,5.8
			c-8.3,3.5-15.5,8.3-21.6,14.2c-6.2,6-11.1,13-14.8,21.1c-3.7,8.1-5.6,16.6-5.8,25.8v52.7c0.4,5.5,2.3,9.9,5.7,13.2
			c3.4,3.3,7.7,5,12.8,5C1674.9,397.7,1679.3,396.1,1682.6,392.9"/>
		<path class="st0" d="M595.8,217c-2.2,0.9-4.1,2.2-5.8,3.8c-1.7,1.6-3.1,3.5-4.3,5.7c-1.1,2.2-1.7,4.4-1.7,6.7v95.4
			c0,9.3,1.9,18.1,5.7,26.5c3.8,8.4,8.9,15.7,15.2,21.9c6.4,6.3,13.7,11.2,22.1,14.9c8.4,3.7,17.1,5.6,26.2,5.6
			c9.3,0,18.1-1.8,26.5-5.4c8.4-3.6,15.7-8.5,21.9-14.8c6.3-6.3,11.2-13.6,14.9-21.9c3.7-8.4,5.6-17.3,5.6-26.8
			c0-10.1-1.7-19-5-26.9c-3.3-7.9-8.3-15.2-14.9-22.1c-5.7-5.3-11.9-9.5-18.5-12.7c-6.6-3.1-13.5-5.2-20.5-6.3c-7-1-14.1-1-21.2,0
			c-7.1,1-14,3.3-20.6,6.7v-32.7c0-2.5-0.5-4.9-1.4-7.3c-0.9-2.4-2.3-4.4-4.1-6.1c-1.8-1.7-3.8-3.1-6.1-4.1c-2.3-1-4.7-1.5-7.1-1.3
			C600.2,215.6,598,216,595.8,217 M623.9,316.7c1.7-3.9,4-7.3,7-10.2c2.9-2.9,6.3-5.3,10.1-7.1c3.8-1.8,7.9-2.7,12.2-2.7
			c4.2,0,8.2,0.9,12.1,2.6c3.9,1.7,7.3,4,10.2,6.8c2.9,2.8,5.3,6.2,7,10.1c1.7,3.9,2.6,8,2.6,12.4c0,4.4-0.9,8.5-2.6,12.4
			c-1.7,3.9-4,7.3-7,10.1c-2.9,2.8-6.4,5.1-10.2,6.8c-3.9,1.7-7.9,2.6-12.1,2.6c-4.4,0-8.4-0.9-12.2-2.6c-3.8-1.7-7.2-4-10.1-6.8
			c-2.9-2.8-5.3-6.2-7-10.1c-1.7-3.9-2.6-8-2.6-12.4C621.3,324.6,622.2,320.6,623.9,316.7 M738.6,221.8c-3.4,3.4-5.4,7.5-6,12.2
			v113.6c0,6.6,1.3,13,3.8,19.1c2.6,6.1,6.1,11.4,10.5,15.9c4.5,4.6,9.6,8.2,15.5,11c5.9,2.7,12.1,4.1,18.8,4.1h4
			c4.9-0.8,9-2.9,12.1-6.4c3.1-3.5,4.7-7.5,4.7-12.1c-0.2-5.1-2.1-9.4-5.8-12.8c-3.7-3.4-8-5.1-13-5.1c-3.8,0-6.9-1.3-9.4-4
			c-2.5-2.7-3.7-5.9-3.7-9.7V235.2c-0.4-5.3-2.3-9.8-5.8-13.4c-3.5-3.6-7.8-5.4-13-5.4C746.3,216.6,742,218.4,738.6,221.8
			 M812.7,265.2c-3.5,3.7-5.3,8-5.3,13v52.4c0,9.1,1.9,17.8,5.7,26.1c3.8,8.3,8.9,15.5,15.2,21.6c6.4,6.2,13.7,11,22.1,14.5
			c8.3,3.5,17.1,5.1,26.2,4.7c9.7,0,18.7-1.8,27-5.4c8.3-3.6,15.6-8.5,21.9-14.8c6.3-6.3,11.2-13.6,14.8-21.9
			c3.6-8.4,5.4-17.3,5.4-26.8v-51.2c-0.2-4.6-2.1-8.7-5.8-12.4c-3.7-3.7-8.1-5.5-13.2-5.5c-5.1,0.2-9.5,2.2-13.1,6
			c-3.6,3.8-5.4,8.1-5.4,12.8V330c0,4.4-0.9,8.4-2.6,12.2c-1.7,3.8-4,7-7,9.7c-2.9,2.7-6.3,4.8-10.1,6.3c-3.8,1.5-7.8,2.3-12,2.3
			c-4.4,0-8.5-0.9-12.4-2.6c-3.9-1.7-7.3-4-10.1-6.8c-2.8-2.8-5.1-6.2-6.8-10.1c-1.7-3.9-2.6-8-2.6-12.4v-50.1
			c0-5.3-1.9-9.8-5.7-13.5c-3.8-3.7-8.2-5.5-13.1-5.5C820.6,259.6,816.2,261.5,812.7,265.2 M997.6,265.4
			c-8.3,3.8-15.6,8.9-21.9,15.2c-6.3,6.4-11.2,13.7-14.9,22.1c-3.7,8.4-5.6,17-5.6,25.9c0,9.1,1.9,17.9,5.6,26.5
			c3.7,8.5,8.7,16,15.1,22.3c6.4,6.4,13.7,11.4,22.1,15.1c8.3,3.7,17.1,5.4,26.2,5c7-0.2,13.7-1.1,19.9-2.7
			c6.3-1.6,11.9-4.5,17.1-8.7c2.8-3,4.5-6.4,5-10c0.5-3.6,0-7-1.4-10.1c-1.4-3.1-3.6-5.7-6.5-7.8c-2.9-2.1-6.4-3.2-10.4-3.4
			c-2.1,0-3.9,0.3-5.6,0.9c-1.6,0.6-3.2,1.2-4.8,2c-1.6,0.8-3.5,1.4-5.6,2c-2.1,0.6-4.7,0.9-7.7,0.9c-11,0-19.6-5.4-25.9-16.2h75.7
			c5.5,0.2,10.1-1.1,13.8-4c3.7-2.8,5.6-6.7,5.6-11.7c0-9.1-1.9-17.8-5.7-26c-3.8-8.3-8.9-15.6-15.2-21.9s-13.7-11.4-22.1-15.2
			c-8.4-3.8-17.1-5.7-26.2-5.7C1014.8,259.7,1006,261.6,997.6,265.4 M998.2,312.6c3.2-5.9,7-10,11.2-12.4c4.3-2.4,9.2-3.6,14.7-3.6
			c5.3,0,10.1,1.2,14.5,3.6c4.4,2.4,8.2,6.5,11.4,12.4H998.2z"/>
	</g>
</g>
<g id="Logo">
	
		<image style="overflow:visible;enable-background:new    ;" width="154" height="154" id="_Image1" xlink:href="E38F35F333ECDBEE.png"  transform="matrix(3.5423 0 0 3.5423 -16.4895 52.115)">
	</image>
</g>
<circle id="Logo1" serif:id="Logo" class="st1" cx="256.3" cy="296.5" r="248">
</circle>
<g>
	<path class="st0" d="M27.6,392.6c1.8-8.6,3.8-17.3,6.2-26.1C48.2,311.4,70,270,98.7,239.9c-3.8-7.7-5.3-15-2.5-19.6
		c4.5-7.1,16.2-9.1,30.1-4.4c29.6-21.2,64.7-33.6,104.9-39c85.3-11.5,133.1,32.4,150.4,39.6c6,2.5,11,3.9,15.2,4.6
		c1.8-0.9,4-1.4,7.2-1.7c9.1-0.9,22,3.9,28.7,10.2c2.8,2.6,4.2,5.5,4.7,8.4c1.4,2.1,2.7,4.5,3.8,7.2c4.1,9.2,4.9,41.1-6.1,57.3
		c-6.4,9.5-8.6,11-14.9,15c-2.4,1.5-11.9,3.2-13.1,4.3c-2,1.8-4.5,12.3-7.3,15.9c-12.7,15.7-29.3,20.3-52.5,35.6
		c-41.7,27.6-69.8,78.6-77.3,134.2c-1.8,12.9-3.5,25.2-5.3,36.9c-2.8,0.1-5.7,0.1-8.6,0.1C153.5,544.5,65.2,481.8,27.6,392.6
		L27.6,392.6z"/>
	<path class="st2" d="M81.6,472.4c9.5-73.7,33.1-137.5,70.7-167.3c52.5-41.6,153.9-12.2,186.5-11c29.4,1.1,74.3-9.2,100.6-15
		c3.7-0.8,4.9-4.3,4.7-1.1c-1.2,9-4.5,19.1-8.9,25.6c-6.4,9.5-10.5,15.2-16.8,19.1c-2.4,1.5-8.7,1.3-9.9,2.5
		c-2,1.8-1.7,8.9-4.6,12.4c-12.7,15.7-30,25-53.2,40.4c-41.7,27.6-66,71.8-73.6,127.4c-1.8,13.6-3.6,26.4-5.2,38.6
		c-5.1,0.3-10.3,0.5-15.5,0.5C188.1,544.5,126.4,517,81.6,472.4L81.6,472.4z"/>
	<path class="st3" d="M388,229.8c5.6-6.8,7-9.6,16-10.4c9.1-0.9,22,3.9,28.7,10.2c9,8.5,4.2,20-4.3,22.6c-10.5,3.2-28.5,0.8-39-7.7
		C383.8,239.9,382.8,236.1,388,229.8L388,229.8z"/>
	<path class="st2" d="M318.8,241.5c-0.2,7.4-10.9,18.5-23.6,18c-12.7-0.5-22.7-11.8-22.4-19.8c0.2-7.9,10.9-18.5,23.6-18
		C309.1,222.2,319.1,234,318.8,241.5"/>
	<path class="st3" d="M362.2,411c-0.8,0-1.6-0.7-1.7-1.6c-6.9-38.1,5.4-116.4,10.7-131.7c0.4-1,1.4-1.5,2.3-1.1
		c0.9,0.4,1.4,1.5,1,2.6c-5.2,15.1-17.2,92.1-10.5,129.5c0.2,1.1-0.4,2.1-1.4,2.3L362.2,411z"/>
	<path class="st3" d="M321,367l-0.4,0c-1-0.2-1.6-1.3-1.4-2.3c4.9-25.4,14.1-60.1,30.1-81.4c0.6-0.8,1.7-0.9,2.5-0.2
		c0.8,0.7,0.9,1.9,0.2,2.8c-15.5,20.6-24.5,54.7-29.3,79.7C322.6,366.4,321.9,367,321,367"/>
	<path class="st3" d="M298.8,343.5l-0.4,0c-1-0.2-1.6-1.3-1.4-2.4c5.5-28.6,23.9-47.3,34.4-56c0.8-0.6,1.9-0.5,2.5,0.4
		c0.6,0.9,0.4,2.1-0.4,2.8c-10.1,8.3-27.8,26.3-33.1,53.6C300.3,342.9,299.6,343.5,298.8,343.5"/>
	<path class="st3" d="M427.4,342.9l-1.1-0.5c-9.1-8.4-19.6-40.4-20.2-56.5c0-1.1,0.7-2,1.7-2.1c1,0,1.8,0.8,1.8,1.9
		c0.6,15.1,10.6,45.9,18.9,53.6c0.8,0.7,0.9,1.9,0.2,2.8L427.4,342.9L427.4,342.9z"/>
	<path class="st3" d="M406.2,377c-0.8,0-1.4-0.5-1.7-1.4c-14.8-50.8-15.9-76.5-15.9-83.1c0-1.1,0.8-2,1.8-2c1,0,1.8,0.9,1.8,2
		c0,6.5,1.1,31.7,15.7,81.9c0.3,1.1-0.2,2.2-1.1,2.5L406.2,377z"/>
</g>
<path class="st2" d="M256.3,43.3C116.5,43.3,3,156.7,3,296.5s113.5,253.3,253.3,253.3s253.3-113.5,253.3-253.3
	S396.1,43.3,256.3,43.3L256.3,43.3z M256.3,53.9c133.9,0,242.6,108.7,242.6,242.6S390.2,539.2,256.3,539.2S13.6,430.5,13.6,296.5
	S122.3,53.9,256.3,53.9L256.3,53.9z"/>
</svg>
